<svg width="400" height="300" viewBox="0 0 400 300" fill="none" xmlns="http://www.w3.org/2000/svg">
  <rect width="400" height="300" fill="#E5E7EB"/>
  <path d="M170 110C170 104.477 174.477 100 180 100H220C225.523 100 230 104.477 230 110V150C230 155.523 225.523 160 220 160H180C174.477 160 170 155.523 170 150V110Z" fill="#9CA3AF"/>
  <circle cx="200" cy="125" r="10" fill="#E5E7EB"/>
  <path d="M170 145L185 130L195 140L210 125L230 145V150C230 155.523 225.523 160 220 160H180C174.477 160 170 155.523 170 150V145Z" fill="#6B7280"/>
  <text x="200" y="190" font-family="Arial, sans-serif" font-size="14" fill="#6B7280" text-anchor="middle">Experiencia</text>
</svg>